<svg width="20" height="20" viewBox="0 0 20 20" fill="none" xmlns="http://www.w3.org/2000/svg">
<g clip-path="url(#clip0_437_7877)">
<mask id="mask0_437_7877" style="mask-type:alpha" maskUnits="userSpaceOnUse" x="0" y="0" width="20" height="20">
<rect width="20" height="20" fill="#D9D9D9"/>
</mask>
<g mask="url(#mask0_437_7877)">
<path d="M13.8958 12.1696C13.7014 12.0744 13.5764 11.9286 13.5208 11.7321C13.4653 11.5357 13.4861 11.3403 13.5833 11.1458C13.6528 11.0069 13.7187 10.8621 13.7812 10.7113C13.8437 10.5606 13.8889 10.4068 13.9167 10.25C13.9583 10.0417 14.0555 9.86458 14.2083 9.71875C14.3611 9.57292 14.5429 9.5 14.7537 9.5C14.9646 9.5 15.1382 9.57639 15.2746 9.72917C15.411 9.88194 15.4653 10.0587 15.4375 10.2594C15.3958 10.5309 15.3368 10.8021 15.2604 11.0729C15.184 11.3438 15.0764 11.6042 14.9375 11.8542C14.8403 12.0486 14.691 12.1736 14.4896 12.2292C14.2882 12.2847 14.0903 12.2649 13.8958 12.1696ZM9.99999 2C10.6944 2 11.2847 2.24306 11.7708 2.72917C12.2569 3.21528 12.5 3.80556 12.5 4.5V8.5625C12.5 8.8125 12.4219 9 12.2656 9.125C12.1094 9.25 11.9375 9.3125 11.75 9.3125C11.5625 9.3125 11.3906 9.24847 11.2344 9.12042C11.0781 8.99236 11 8.80639 11 8.5625V4.5C11 4.21667 10.9042 3.97917 10.7125 3.7875C10.5208 3.59583 10.2833 3.5 9.99999 3.5C9.71666 3.5 9.47916 3.59583 9.28749 3.7875C9.09582 3.97917 8.99999 4.21667 8.99999 4.5V5.0625C8.99999 5.3125 8.92186 5.5 8.76561 5.625C8.60936 5.75 8.43749 5.8125 8.24999 5.8125C8.06249 5.8125 7.89061 5.74847 7.73436 5.62042C7.57811 5.49236 7.49999 5.30639 7.49999 5.0625V4.5C7.49999 3.80556 7.74305 3.21528 8.22916 2.72917C8.71527 2.24306 9.30555 2 9.99999 2ZM9.24999 16.25V14.9375C8.02957 14.779 6.98485 14.2672 6.11582 13.4019C5.24693 12.5367 4.72916 11.4931 4.56249 10.2708C4.53471 10.0578 4.5895 9.87604 4.72686 9.72563C4.86423 9.57521 5.03784 9.5 5.2477 9.5C5.45756 9.5 5.63659 9.57188 5.78478 9.71563C5.93284 9.85938 6.02541 10.0375 6.06249 10.25C6.24305 11.2083 6.70485 11.9896 7.44791 12.5938C8.19096 13.1979 9.04166 13.5 9.99999 13.5C10.4722 13.5 10.9201 13.4097 11.3437 13.2292C11.7674 13.0486 12.1597 12.8056 12.5208 12.5L13.6042 13.5833C13.1972 13.9318 12.7517 14.2273 12.2677 14.4698C11.7837 14.7122 11.2778 14.8681 10.75 14.9375V16.25C10.75 16.4625 10.6785 16.6406 10.5356 16.7844C10.3927 16.9281 10.2156 17 10.0044 17C9.79311 17 9.61457 16.9281 9.46874 16.7844C9.32291 16.6406 9.24999 16.4625 9.24999 16.25ZM15.4792 17.5833L2.39582 4.5C2.24305 4.34722 2.16666 4.17361 2.16666 3.97917C2.16666 3.78472 2.24305 3.61111 2.39582 3.45833C2.5486 3.30556 2.72568 3.22917 2.92707 3.22917C3.12846 3.22917 3.30555 3.30556 3.45832 3.45833L16.5417 16.5417C16.6944 16.6944 16.7708 16.8681 16.7708 17.0625C16.7708 17.2569 16.6944 17.4306 16.5417 17.5833C16.3889 17.7361 16.2118 17.8125 16.0104 17.8125C15.809 17.8125 15.6319 17.7361 15.4792 17.5833Z" fill="#BAC8DE"/>
</g>
</g>
<defs>
<clipPath id="clip0_437_7877">
<rect width="20" height="20" fill="white"/>
</clipPath>
</defs>
</svg>
